<?xml version="1.0" standalone="no"?>
<!DOCTYPE svg PUBLIC "-//W3C//DTD SVG 20010904//EN"
 "http://www.w3.org/TR/2001/REC-SVG-20010904/DTD/svg10.dtd">
<svg version="1.0" xmlns="http://www.w3.org/2000/svg"
 width="32.000000pt" height="32.000000pt" viewBox="0 0 32.000000 32.000000"
 preserveAspectRatio="xMidYMid meet">

<g transform="translate(0.000000,32.000000) scale(0.100000,-0.100000)"
fill="#000000" stroke="none">
<path d="M250 184 c-26 -11 -39 -13 -52 -5 -20 12 -23 4 -8 -19 5 -8 12 -11
16 -7 4 4 16 -1 27 -10 19 -17 19 -17 13 4 -6 19 -2 25 18 33 14 5 26 12 26
15 0 7 1 7 -40 -11z"/>
<path d="M26 168 c-9 -35 -9 -36 33 -40 31 -3 41 0 44 14 3 9 2 19 -1 22 -9
10 -50 7 -55 -4 -3 -6 -4 -5 -3 2 1 7 18 16 37 19 l34 6 -41 2 c-35 1 -43 -2
-48 -21z"/>
<path d="M150 160 c11 -20 10 -22 -4 -17 -12 5 -15 3 -10 -5 5 -8 1 -9 -12 -4
-14 5 -16 4 -8 -4 9 -9 19 -8 40 4 16 8 23 15 17 16 -7 0 -12 5 -10 11 1 6 -4
14 -11 16 -11 4 -12 1 -2 -17z"/>
</g>
</svg>
